<svg width="258" height="368" viewBox="0 0 258 368" fill="none" xmlns="http://www.w3.org/2000/svg">
<rect x="0.5" y="0.5" width="257" height="367" rx="15.5" fill="#F1F1F1" stroke="#9C9C9C" stroke-dasharray="32 32"/>
<path d="M128.957 158.667V177.333" stroke="#C4C4C4" stroke-width="2" stroke-linecap="round" stroke-linejoin="round"/>
<path d="M120.232 168H137.681" stroke="#C4C4C4" stroke-width="2" stroke-linecap="round" stroke-linejoin="round"/>
<path d="M70.5937 214L69.4531 210.828H65.0859L63.9687 214H61.9999L66.2734 202.531H68.3046L72.5781 214H70.5937ZM68.9609 209.219L67.8906 206.109C67.8124 205.901 67.7031 205.573 67.5624 205.125C67.427 204.677 67.3333 204.349 67.2812 204.141C67.1406 204.781 66.9348 205.482 66.664 206.242L65.6328 209.219H68.9609ZM76.8046 214.156C75.7265 214.156 74.8854 213.766 74.2812 212.984C73.677 212.203 73.3749 211.107 73.3749 209.695C73.3749 208.279 73.6796 207.177 74.289 206.391C74.9036 205.599 75.7525 205.203 76.8359 205.203C77.9713 205.203 78.8359 205.622 79.4296 206.461H79.5234C79.4348 205.841 79.3906 205.352 79.3906 204.992V201.844H81.2343V214H79.7968L79.4765 212.867H79.3906C78.802 213.727 77.94 214.156 76.8046 214.156ZM77.2968 212.672C78.052 212.672 78.6015 212.461 78.9453 212.039C79.289 211.612 79.4661 210.922 79.4765 209.969V209.711C79.4765 208.622 79.2994 207.849 78.9453 207.391C78.5911 206.932 78.0364 206.703 77.2812 206.703C76.6354 206.703 76.138 206.966 75.789 207.492C75.44 208.013 75.2656 208.758 75.2656 209.727C75.2656 210.685 75.4348 211.417 75.7734 211.922C76.1119 212.422 76.6197 212.672 77.2968 212.672ZM86.7734 214.156C85.6953 214.156 84.8541 213.766 84.2499 212.984C83.6458 212.203 83.3437 211.107 83.3437 209.695C83.3437 208.279 83.6484 207.177 84.2578 206.391C84.8723 205.599 85.7213 205.203 86.8046 205.203C87.94 205.203 88.8046 205.622 89.3984 206.461H89.4921C89.4036 205.841 89.3593 205.352 89.3593 204.992V201.844H91.2031V214H89.7656L89.4453 212.867H89.3593C88.7708 213.727 87.9088 214.156 86.7734 214.156ZM87.2656 212.672C88.0208 212.672 88.5703 212.461 88.914 212.039C89.2578 211.612 89.4348 210.922 89.4453 209.969V209.711C89.4453 208.622 89.2682 207.849 88.914 207.391C88.5598 206.932 88.0051 206.703 87.2499 206.703C86.6041 206.703 86.1067 206.966 85.7578 207.492C85.4088 208.013 85.2343 208.758 85.2343 209.727C85.2343 210.685 85.4036 211.417 85.7421 211.922C86.0807 212.422 86.5885 212.672 87.2656 212.672ZM107.695 214H105.406L99.789 204.898H99.7265L99.7656 205.406C99.8385 206.375 99.8749 207.26 99.8749 208.062V214H98.1796V202.578H100.445L106.047 211.633H106.094C106.083 211.513 106.062 211.078 106.031 210.328C106 209.573 105.984 208.984 105.984 208.562V202.578H107.695V214ZM114.289 214.156C112.945 214.156 111.893 213.766 111.133 212.984C110.378 212.198 110 211.117 110 209.742C110 208.331 110.352 207.221 111.055 206.414C111.758 205.607 112.724 205.203 113.953 205.203C115.094 205.203 115.995 205.549 116.656 206.242C117.318 206.935 117.648 207.888 117.648 209.102V210.094H111.891C111.917 210.932 112.143 211.578 112.57 212.031C112.997 212.479 113.599 212.703 114.375 212.703C114.885 212.703 115.359 212.656 115.797 212.562C116.24 212.464 116.713 212.302 117.219 212.078V213.57C116.771 213.784 116.318 213.935 115.859 214.023C115.401 214.112 114.878 214.156 114.289 214.156ZM113.953 206.594C113.37 206.594 112.901 206.779 112.547 207.148C112.198 207.518 111.99 208.057 111.922 208.766H115.844C115.833 208.052 115.661 207.513 115.328 207.148C114.995 206.779 114.536 206.594 113.953 206.594ZM126.82 214L125.703 209.969C125.568 209.542 125.323 208.549 124.969 206.992H124.898C124.596 208.398 124.357 209.396 124.18 209.984L123.031 214H121L118.578 205.359H120.453L121.555 209.617C121.805 210.669 121.982 211.57 122.086 212.32H122.133C122.185 211.94 122.263 211.505 122.367 211.016C122.477 210.521 122.57 210.151 122.648 209.906L123.961 205.359H125.977L127.25 209.906C127.328 210.161 127.424 210.552 127.539 211.078C127.659 211.604 127.729 212.013 127.75 212.305H127.812C127.891 211.664 128.073 210.768 128.359 209.617L129.477 205.359H131.32L128.883 214H126.82ZM143.75 210.898C143.75 211.914 143.383 212.711 142.648 213.289C141.914 213.867 140.901 214.156 139.609 214.156C138.318 214.156 137.26 213.956 136.437 213.555V211.789C136.958 212.034 137.51 212.227 138.094 212.367C138.682 212.508 139.229 212.578 139.734 212.578C140.474 212.578 141.018 212.438 141.367 212.156C141.721 211.875 141.898 211.497 141.898 211.023C141.898 210.596 141.737 210.234 141.414 209.938C141.091 209.641 140.424 209.289 139.414 208.883C138.372 208.461 137.638 207.979 137.211 207.438C136.784 206.896 136.57 206.245 136.57 205.484C136.57 204.531 136.909 203.781 137.586 203.234C138.263 202.688 139.172 202.414 140.312 202.414C141.406 202.414 142.495 202.654 143.578 203.133L142.984 204.656C141.969 204.229 141.062 204.016 140.266 204.016C139.661 204.016 139.203 204.148 138.891 204.414C138.578 204.674 138.422 205.021 138.422 205.453C138.422 205.75 138.484 206.005 138.609 206.219C138.734 206.427 138.94 206.625 139.227 206.812C139.513 207 140.029 207.247 140.773 207.555C141.612 207.904 142.227 208.229 142.617 208.531C143.008 208.833 143.294 209.174 143.477 209.555C143.659 209.935 143.75 210.383 143.75 210.898ZM149.539 214.156C148.195 214.156 147.143 213.766 146.383 212.984C145.628 212.198 145.25 211.117 145.25 209.742C145.25 208.331 145.602 207.221 146.305 206.414C147.008 205.607 147.974 205.203 149.203 205.203C150.344 205.203 151.245 205.549 151.906 206.242C152.568 206.935 152.898 207.888 152.898 209.102V210.094H147.141C147.167 210.932 147.393 211.578 147.82 212.031C148.247 212.479 148.849 212.703 149.625 212.703C150.135 212.703 150.609 212.656 151.047 212.562C151.49 212.464 151.963 212.302 152.469 212.078V213.57C152.021 213.784 151.568 213.935 151.109 214.023C150.651 214.112 150.128 214.156 149.539 214.156ZM149.203 206.594C148.62 206.594 148.151 206.779 147.797 207.148C147.448 207.518 147.24 208.057 147.172 208.766H151.094C151.083 208.052 150.911 207.513 150.578 207.148C150.245 206.779 149.786 206.594 149.203 206.594ZM159.367 205.203C159.737 205.203 160.042 205.229 160.281 205.281L160.102 206.992C159.841 206.93 159.57 206.898 159.289 206.898C158.555 206.898 157.958 207.138 157.5 207.617C157.047 208.096 156.82 208.719 156.82 209.484V214H154.984V205.359H156.422L156.664 206.883H156.758C157.044 206.367 157.417 205.958 157.875 205.656C158.338 205.354 158.836 205.203 159.367 205.203ZM163.859 214L160.578 205.359H162.516L164.273 210.383C164.575 211.227 164.758 211.909 164.82 212.43H164.883C164.93 212.055 165.112 211.372 165.43 210.383L167.187 205.359H169.141L165.844 214H163.859ZM172.289 214H170.453V205.359H172.289V214ZM170.344 203.07C170.344 202.742 170.432 202.49 170.609 202.312C170.792 202.135 171.049 202.047 171.383 202.047C171.706 202.047 171.956 202.135 172.133 202.312C172.315 202.49 172.406 202.742 172.406 203.07C172.406 203.383 172.315 203.63 172.133 203.812C171.956 203.99 171.706 204.078 171.383 204.078C171.049 204.078 170.792 203.99 170.609 203.812C170.432 203.63 170.344 203.383 170.344 203.07ZM178.406 214.156C177.099 214.156 176.104 213.776 175.422 213.016C174.745 212.25 174.406 211.154 174.406 209.727C174.406 208.273 174.76 207.156 175.469 206.375C176.182 205.594 177.211 205.203 178.555 205.203C179.466 205.203 180.286 205.372 181.016 205.711L180.461 207.188C179.685 206.885 179.044 206.734 178.539 206.734C177.044 206.734 176.297 207.727 176.297 209.711C176.297 210.68 176.482 211.409 176.852 211.898C177.227 212.383 177.773 212.625 178.492 212.625C179.31 212.625 180.083 212.422 180.812 212.016V213.617C180.484 213.81 180.133 213.948 179.758 214.031C179.388 214.115 178.937 214.156 178.406 214.156ZM186.617 214.156C185.273 214.156 184.221 213.766 183.461 212.984C182.706 212.198 182.328 211.117 182.328 209.742C182.328 208.331 182.68 207.221 183.383 206.414C184.086 205.607 185.052 205.203 186.281 205.203C187.422 205.203 188.323 205.549 188.984 206.242C189.646 206.935 189.977 207.888 189.977 209.102V210.094H184.219C184.245 210.932 184.471 211.578 184.898 212.031C185.325 212.479 185.927 212.703 186.703 212.703C187.213 212.703 187.687 212.656 188.125 212.562C188.568 212.464 189.042 212.302 189.547 212.078V213.57C189.099 213.784 188.646 213.935 188.187 214.023C187.729 214.112 187.206 214.156 186.617 214.156ZM186.281 206.594C185.698 206.594 185.229 206.779 184.875 207.148C184.526 207.518 184.318 208.057 184.25 208.766H188.172C188.161 208.052 187.99 207.513 187.656 207.148C187.323 206.779 186.865 206.594 186.281 206.594Z" fill="#C4C4C4"/>
</svg>
