<svg width="158" height="45" viewBox="0 0 158 45" fill="none" xmlns="http://www.w3.org/2000/svg">
<path d="M29.1953 22.9836C29.1797 20.1531 30.3867 18.0198 32.8242 16.4468C31.4609 14.3716 29.3984 13.2302 26.6797 13.0103C24.1055 12.7944 21.2891 14.604 20.2578 14.604C19.168 14.604 16.6758 13.085 14.7148 13.085C10.668 13.1514 6.36719 16.5132 6.36719 23.353C6.36719 25.3743 6.71484 27.4619 7.41016 29.6118C8.33984 32.4424 11.6914 39.3777 15.1875 39.2656C17.0156 39.22 18.3086 37.8877 20.6875 37.8877C22.9961 37.8877 24.1914 39.2656 26.2305 39.2656C29.7578 39.2117 32.7891 32.9072 33.6719 30.0684C28.9414 27.6985 29.1953 23.1289 29.1953 22.9836ZM25.0898 10.325C27.0703 7.82642 26.8906 5.552 26.832 4.73438C25.082 4.84229 23.0586 6.00024 21.9062 7.42383C20.6367 8.95117 19.8906 10.8396 20.0508 12.9688C21.9414 13.1223 23.668 12.0889 25.0898 10.325Z" fill="black"/>
<path d="M57.1367 38.6875L55.4258 33.9297H48.875L47.1992 38.6875H44.2461L50.6562 21.4844H53.7031L60.1133 38.6875H57.1367ZM54.6875 31.5156L53.082 26.8516C52.9648 26.5391 52.8008 26.0469 52.5898 25.375C52.3867 24.7031 52.2461 24.2109 52.168 23.8984C51.957 24.8594 51.6484 25.9102 51.2422 27.0508L49.6953 31.5156H54.6875ZM68.6562 38.9219C67.0156 38.9219 65.7422 38.332 64.8359 37.1523H64.6719C64.7812 38.2461 64.8359 38.9102 64.8359 39.1445V44.4531H62.082V25.7266H64.3086C64.3711 25.9688 64.5 26.5469 64.6953 27.4609H64.8359C65.6953 26.1484 66.9844 25.4922 68.7031 25.4922C70.3203 25.4922 71.5781 26.0781 72.4766 27.25C73.3828 28.4219 73.8359 30.0664 73.8359 32.1836C73.8359 34.3008 73.375 35.9531 72.4531 37.1406C71.5391 38.3281 70.2734 38.9219 68.6562 38.9219ZM67.9883 27.7422C66.8945 27.7422 66.0938 28.0625 65.5859 28.7031C65.0859 29.3438 64.8359 30.3672 64.8359 31.7734V32.1836C64.8359 33.7617 65.0859 34.9062 65.5859 35.6172C66.0859 36.3203 66.9023 36.6719 68.0352 36.6719C68.9883 36.6719 69.7227 36.2812 70.2383 35.5C70.7539 34.7188 71.0117 33.6055 71.0117 32.1602C71.0117 30.707 70.7539 29.6094 70.2383 28.8672C69.7305 28.1172 68.9805 27.7422 67.9883 27.7422ZM83.6094 38.9219C81.9688 38.9219 80.6953 38.332 79.7891 37.1523H79.625C79.7344 38.2461 79.7891 38.9102 79.7891 39.1445V44.4531H77.0352V25.7266H79.2617C79.3242 25.9688 79.4531 26.5469 79.6484 27.4609H79.7891C80.6484 26.1484 81.9375 25.4922 83.6562 25.4922C85.2734 25.4922 86.5312 26.0781 87.4297 27.25C88.3359 28.4219 88.7891 30.0664 88.7891 32.1836C88.7891 34.3008 88.3281 35.9531 87.4062 37.1406C86.4922 38.3281 85.2266 38.9219 83.6094 38.9219ZM82.9414 27.7422C81.8477 27.7422 81.0469 28.0625 80.5391 28.7031C80.0391 29.3438 79.7891 30.3672 79.7891 31.7734V32.1836C79.7891 33.7617 80.0391 34.9062 80.5391 35.6172C81.0391 36.3203 81.8555 36.6719 82.9883 36.6719C83.9414 36.6719 84.6758 36.2812 85.1914 35.5C85.707 34.7188 85.9648 33.6055 85.9648 32.1602C85.9648 30.707 85.707 29.6094 85.1914 28.8672C84.6836 28.1172 83.9336 27.7422 82.9414 27.7422ZM108.395 34.0352C108.395 35.5586 107.844 36.7539 106.742 37.6211C105.641 38.4883 104.121 38.9219 102.184 38.9219C100.246 38.9219 98.6602 38.6211 97.4258 38.0195V35.3711C98.207 35.7383 99.0352 36.0273 99.9102 36.2383C100.793 36.4492 101.613 36.5547 102.371 36.5547C103.48 36.5547 104.297 36.3438 104.82 35.9219C105.352 35.5 105.617 34.9336 105.617 34.2227C105.617 33.582 105.375 33.0391 104.891 32.5938C104.406 32.1484 103.406 31.6211 101.891 31.0117C100.328 30.3789 99.2266 29.6562 98.5859 28.8438C97.9453 28.0312 97.625 27.0547 97.625 25.9141C97.625 24.4844 98.1328 23.3594 99.1484 22.5391C100.164 21.7188 101.527 21.3086 103.238 21.3086C104.879 21.3086 106.512 21.668 108.137 22.3867L107.246 24.6719C105.723 24.0312 104.363 23.7109 103.168 23.7109C102.262 23.7109 101.574 23.9102 101.105 24.3086C100.637 24.6992 100.402 25.2188 100.402 25.8672C100.402 26.3125 100.496 26.6953 100.684 27.0156C100.871 27.3281 101.18 27.625 101.609 27.9062C102.039 28.1875 102.812 28.5586 103.93 29.0195C105.188 29.543 106.109 30.0312 106.695 30.4844C107.281 30.9375 107.711 31.4492 107.984 32.0195C108.258 32.5898 108.395 33.2617 108.395 34.0352ZM116.246 36.6953C116.918 36.6953 117.59 36.5898 118.262 36.3789V38.4531C117.957 38.5859 117.562 38.6953 117.078 38.7812C116.602 38.875 116.105 38.9219 115.59 38.9219C112.98 38.9219 111.676 37.5469 111.676 34.7969V27.8125H109.906V26.5938L111.805 25.5859L112.742 22.8438H114.441V25.7266H118.133V27.8125H114.441V34.75C114.441 35.4141 114.605 35.9062 114.934 36.2266C115.27 36.5391 115.707 36.6953 116.246 36.6953ZM132.359 32.1836C132.359 34.3008 131.816 35.9531 130.73 37.1406C129.645 38.3281 128.133 38.9219 126.195 38.9219C124.984 38.9219 123.914 38.6484 122.984 38.1016C122.055 37.5547 121.34 36.7695 120.84 35.7461C120.34 34.7227 120.09 33.5352 120.09 32.1836C120.09 30.082 120.629 28.4414 121.707 27.2617C122.785 26.082 124.305 25.4922 126.266 25.4922C128.141 25.4922 129.625 26.0977 130.719 27.3086C131.812 28.5117 132.359 30.1367 132.359 32.1836ZM122.926 32.1836C122.926 35.1758 124.031 36.6719 126.242 36.6719C128.43 36.6719 129.523 35.1758 129.523 32.1836C129.523 29.2227 128.422 27.7422 126.219 27.7422C125.062 27.7422 124.223 28.125 123.699 28.8906C123.184 29.6562 122.926 30.7539 122.926 32.1836ZM142.109 25.4922C142.664 25.4922 143.121 25.5312 143.48 25.6094L143.211 28.1758C142.82 28.082 142.414 28.0352 141.992 28.0352C140.891 28.0352 139.996 28.3945 139.309 29.1133C138.629 29.832 138.289 30.7656 138.289 31.9141V38.6875H135.535V25.7266H137.691L138.055 28.0117H138.195C138.625 27.2383 139.184 26.625 139.871 26.1719C140.566 25.7188 141.312 25.4922 142.109 25.4922ZM151.555 38.9219C149.539 38.9219 147.961 38.3359 146.82 37.1641C145.688 35.9844 145.121 34.3633 145.121 32.3008C145.121 30.1836 145.648 28.5195 146.703 27.3086C147.758 26.0977 149.207 25.4922 151.051 25.4922C152.762 25.4922 154.113 26.0117 155.105 27.0508C156.098 28.0898 156.594 29.5195 156.594 31.3398V32.8281H147.957C147.996 34.0859 148.336 35.0547 148.977 35.7344C149.617 36.4062 150.52 36.7422 151.684 36.7422C152.449 36.7422 153.16 36.6719 153.816 36.5312C154.48 36.3828 155.191 36.1406 155.949 35.8047V38.043C155.277 38.3633 154.598 38.5898 153.91 38.7227C153.223 38.8555 152.438 38.9219 151.555 38.9219ZM151.051 27.5781C150.176 27.5781 149.473 27.8555 148.941 28.4102C148.418 28.9648 148.105 29.7734 148.004 30.8359H153.887C153.871 29.7656 153.613 28.957 153.113 28.4102C152.613 27.8555 151.926 27.5781 151.051 27.5781Z" fill="black"/>
<path d="M52.5273 8.44727C52.5273 9.86133 52.1348 10.9434 51.3496 11.6934C50.5645 12.4395 49.4336 12.8125 47.957 12.8125H45.5605V4.24609H48.209C49.5723 4.24609 50.6328 4.61328 51.3906 5.34766C52.1484 6.08203 52.5273 7.11523 52.5273 8.44727ZM51.0508 8.49414C51.0508 6.44336 50.0918 5.41797 48.1738 5.41797H46.9609V11.6348H47.957C50.0195 11.6348 51.0508 10.5879 51.0508 8.49414ZM59.9746 9.56055C59.9746 10.6191 59.7031 11.4453 59.1602 12.0391C58.6172 12.6328 57.8613 12.9297 56.8926 12.9297C56.2871 12.9297 55.752 12.793 55.2871 12.5195C54.8223 12.2461 54.4648 11.8535 54.2148 11.3418C53.9648 10.8301 53.8398 10.2363 53.8398 9.56055C53.8398 8.50977 54.1094 7.68945 54.6484 7.09961C55.1875 6.50977 55.9473 6.21484 56.9277 6.21484C57.8652 6.21484 58.6074 6.51758 59.1543 7.12305C59.7012 7.72461 59.9746 8.53711 59.9746 9.56055ZM55.2578 9.56055C55.2578 11.0566 55.8105 11.8047 56.916 11.8047C58.0098 11.8047 58.5566 11.0566 58.5566 9.56055C58.5566 8.08008 58.0059 7.33984 56.9043 7.33984C56.3262 7.33984 55.9062 7.53125 55.6445 7.91406C55.3867 8.29688 55.2578 8.8457 55.2578 9.56055ZM66.877 12.8125L66.0391 9.78906C65.9375 9.46875 65.7539 8.72461 65.4883 7.55664H65.4355C65.209 8.61133 65.0293 9.35938 64.8965 9.80078L64.0352 12.8125H62.5117L60.6953 6.33203H62.1016L62.9277 9.52539C63.1152 10.3145 63.248 10.9902 63.3262 11.5527H63.3613C63.4004 11.2676 63.459 10.9414 63.5371 10.5742C63.6191 10.2031 63.6895 9.92578 63.748 9.74219L64.7324 6.33203H66.2441L67.1992 9.74219C67.2578 9.93359 67.3301 10.2266 67.416 10.6211C67.5059 11.0156 67.5586 11.3223 67.5742 11.541H67.6211C67.6797 11.0605 67.8164 10.3887 68.0312 9.52539L68.8691 6.33203H70.252L68.4238 12.8125H66.877ZM77.0723 12.8125H75.6895V8.82812C75.6895 8.32812 75.5879 7.95508 75.3848 7.70898C75.1855 7.46289 74.8672 7.33984 74.4297 7.33984C73.8477 7.33984 73.4219 7.51172 73.1523 7.85547C72.8828 8.19922 72.748 8.77539 72.748 9.58398V12.8125H71.3711V6.33203H72.4492L72.6426 7.18164H72.7129C72.9082 6.87305 73.1855 6.63477 73.5449 6.4668C73.9043 6.29883 74.3027 6.21484 74.7402 6.21484C76.2949 6.21484 77.0723 7.00586 77.0723 8.58789V12.8125ZM80.3652 12.8125H78.9883V3.69531H80.3652V12.8125ZM88.0879 9.56055C88.0879 10.6191 87.8164 11.4453 87.2734 12.0391C86.7305 12.6328 85.9746 12.9297 85.0059 12.9297C84.4004 12.9297 83.8652 12.793 83.4004 12.5195C82.9355 12.2461 82.5781 11.8535 82.3281 11.3418C82.0781 10.8301 81.9531 10.2363 81.9531 9.56055C81.9531 8.50977 82.2227 7.68945 82.7617 7.09961C83.3008 6.50977 84.0605 6.21484 85.041 6.21484C85.9785 6.21484 86.7207 6.51758 87.2676 7.12305C87.8145 7.72461 88.0879 8.53711 88.0879 9.56055ZM83.3711 9.56055C83.3711 11.0566 83.9238 11.8047 85.0293 11.8047C86.123 11.8047 86.6699 11.0566 86.6699 9.56055C86.6699 8.08008 86.1191 7.33984 85.0176 7.33984C84.4395 7.33984 84.0195 7.53125 83.7578 7.91406C83.5 8.29688 83.3711 8.8457 83.3711 9.56055ZM93.7305 12.8125L93.4551 11.9102H93.4082C93.0957 12.3047 92.7812 12.5742 92.4648 12.7188C92.1484 12.8594 91.7422 12.9297 91.2461 12.9297C90.6094 12.9297 90.1113 12.7578 89.752 12.4141C89.3965 12.0703 89.2188 11.584 89.2188 10.9551C89.2188 10.2871 89.4668 9.7832 89.9629 9.44336C90.459 9.10352 91.2148 8.91797 92.2305 8.88672L93.3496 8.85156V8.50586C93.3496 8.0918 93.252 7.7832 93.0566 7.58008C92.8652 7.37305 92.5664 7.26953 92.1602 7.26953C91.8281 7.26953 91.5098 7.31836 91.2051 7.41602C90.9004 7.51367 90.6074 7.62891 90.3262 7.76172L89.8809 6.77734C90.2324 6.59375 90.6172 6.45508 91.0352 6.36133C91.4531 6.26367 91.8477 6.21484 92.2188 6.21484C93.043 6.21484 93.6641 6.39453 94.082 6.75391C94.5039 7.11328 94.7148 7.67773 94.7148 8.44727V12.8125H93.7305ZM91.6797 11.875C92.1797 11.875 92.5801 11.7363 92.8809 11.459C93.1855 11.1777 93.3379 10.7852 93.3379 10.2812V9.71875L92.5059 9.75391C91.8574 9.77734 91.3848 9.88672 91.0879 10.082C90.7949 10.2734 90.6484 10.5684 90.6484 10.9668C90.6484 11.2559 90.7344 11.4805 90.9062 11.6406C91.0781 11.7969 91.3359 11.875 91.6797 11.875ZM98.8223 12.9297C98.0137 12.9297 97.3828 12.6367 96.9297 12.0508C96.4766 11.4648 96.25 10.6426 96.25 9.58398C96.25 8.52148 96.4785 7.69531 96.9355 7.10547C97.3965 6.51172 98.0332 6.21484 98.8457 6.21484C99.6973 6.21484 100.346 6.5293 100.791 7.1582H100.861C100.795 6.69336 100.762 6.32617 100.762 6.05664V3.69531H102.145V12.8125H101.066L100.826 11.9629H100.762C100.32 12.6074 99.6738 12.9297 98.8223 12.9297ZM99.1914 11.8164C99.7578 11.8164 100.17 11.6582 100.428 11.3418C100.686 11.0215 100.818 10.5039 100.826 9.78906V9.5957C100.826 8.7793 100.693 8.19922 100.428 7.85547C100.162 7.51172 99.7461 7.33984 99.1797 7.33984C98.6953 7.33984 98.3223 7.53711 98.0605 7.93164C97.7988 8.32227 97.668 8.88086 97.668 9.60742C97.668 10.3262 97.7949 10.875 98.0488 11.2539C98.3027 11.6289 98.6836 11.8164 99.1914 11.8164ZM112.979 9.56055C112.979 10.6191 112.707 11.4453 112.164 12.0391C111.621 12.6328 110.865 12.9297 109.896 12.9297C109.291 12.9297 108.756 12.793 108.291 12.5195C107.826 12.2461 107.469 11.8535 107.219 11.3418C106.969 10.8301 106.844 10.2363 106.844 9.56055C106.844 8.50977 107.113 7.68945 107.652 7.09961C108.191 6.50977 108.951 6.21484 109.932 6.21484C110.869 6.21484 111.611 6.51758 112.158 7.12305C112.705 7.72461 112.979 8.53711 112.979 9.56055ZM108.262 9.56055C108.262 11.0566 108.814 11.8047 109.92 11.8047C111.014 11.8047 111.561 11.0566 111.561 9.56055C111.561 8.08008 111.01 7.33984 109.908 7.33984C109.33 7.33984 108.91 7.53125 108.648 7.91406C108.391 8.29688 108.262 8.8457 108.262 9.56055ZM120.268 12.8125H118.885V8.82812C118.885 8.32812 118.783 7.95508 118.58 7.70898C118.381 7.46289 118.062 7.33984 117.625 7.33984C117.043 7.33984 116.617 7.51172 116.348 7.85547C116.078 8.19922 115.943 8.77539 115.943 9.58398V12.8125H114.566V6.33203H115.645L115.838 7.18164H115.908C116.104 6.87305 116.381 6.63477 116.74 6.4668C117.1 6.29883 117.498 6.21484 117.936 6.21484C119.49 6.21484 120.268 7.00586 120.268 8.58789V12.8125ZM127.715 11.8164C128.051 11.8164 128.387 11.7637 128.723 11.6582V12.6953C128.57 12.7617 128.373 12.8164 128.131 12.8594C127.893 12.9062 127.645 12.9297 127.387 12.9297C126.082 12.9297 125.43 12.2422 125.43 10.8672V7.375H124.545V6.76562L125.494 6.26172L125.963 4.89062H126.812V6.33203H128.658V7.375H126.812V10.8438C126.812 11.1758 126.895 11.4219 127.059 11.582C127.227 11.7383 127.445 11.8164 127.715 11.8164ZM135.725 12.8125H134.342V8.82812C134.342 8.32812 134.24 7.95508 134.037 7.70898C133.838 7.46289 133.52 7.33984 133.082 7.33984C132.504 7.33984 132.078 7.51367 131.805 7.86133C131.535 8.20508 131.4 8.7832 131.4 9.5957V12.8125H130.023V3.69531H131.4V6.00977C131.4 6.38086 131.377 6.77734 131.33 7.19922H131.418C131.605 6.88672 131.865 6.64453 132.197 6.47266C132.533 6.30078 132.924 6.21484 133.369 6.21484C134.939 6.21484 135.725 7.00586 135.725 8.58789V12.8125ZM140.471 12.9297C139.463 12.9297 138.674 12.6367 138.104 12.0508C137.537 11.4609 137.254 10.6504 137.254 9.61914C137.254 8.56055 137.518 7.72852 138.045 7.12305C138.572 6.51758 139.297 6.21484 140.219 6.21484C141.074 6.21484 141.75 6.47461 142.246 6.99414C142.742 7.51367 142.99 8.22852 142.99 9.13867V9.88281H138.672C138.691 10.5117 138.861 10.9961 139.182 11.3359C139.502 11.6719 139.953 11.8398 140.535 11.8398C140.918 11.8398 141.273 11.8047 141.602 11.7344C141.934 11.6602 142.289 11.5391 142.668 11.3711V12.4902C142.332 12.6504 141.992 12.7637 141.648 12.8301C141.305 12.8965 140.912 12.9297 140.471 12.9297ZM140.219 7.25781C139.781 7.25781 139.43 7.39648 139.164 7.67383C138.902 7.95117 138.746 8.35547 138.695 8.88672H141.637C141.629 8.35156 141.5 7.94727 141.25 7.67383C141 7.39648 140.656 7.25781 140.219 7.25781Z" fill="black"/>
</svg>
