<svg width="174" height="24" viewBox="0 0 174 24" fill="none" xmlns="http://www.w3.org/2000/svg">
<path d="M35.375 11.8906H36.6719C37.5417 11.8906 38.1719 11.7292 38.5625 11.4062C38.9531 11.0833 39.1484 10.6042 39.1484 9.96875C39.1484 9.32292 38.9375 8.85938 38.5156 8.57812C38.0938 8.29688 37.4583 8.15625 36.6094 8.15625H35.375V11.8906ZM35.375 13.4375V18H33.5078V6.57812H36.7344C38.2083 6.57812 39.2995 6.85417 40.0078 7.40625C40.7161 7.95833 41.0703 8.79167 41.0703 9.90625C41.0703 11.3281 40.3307 12.3411 38.8516 12.9453L42.0781 18H39.9531L37.2188 13.4375H35.375ZM47.3203 18.1562C45.9766 18.1562 44.9245 17.7656 44.1641 16.9844C43.4089 16.1979 43.0312 15.1172 43.0312 13.7422C43.0312 12.3307 43.3828 11.2214 44.0859 10.4141C44.7891 9.60677 45.7552 9.20312 46.9844 9.20312C48.125 9.20312 49.026 9.54948 49.6875 10.2422C50.349 10.9349 50.6797 11.888 50.6797 13.1016V14.0938H44.9219C44.9479 14.9323 45.1745 15.5781 45.6016 16.0312C46.0286 16.4792 46.6302 16.7031 47.4062 16.7031C47.9167 16.7031 48.3906 16.6562 48.8281 16.5625C49.2708 16.4635 49.7448 16.3021 50.25 16.0781V17.5703C49.8021 17.7839 49.349 17.9349 48.8906 18.0234C48.4323 18.112 47.9089 18.1562 47.3203 18.1562ZM46.9844 10.5938C46.401 10.5938 45.9323 10.7786 45.5781 11.1484C45.2292 11.5182 45.0208 12.0573 44.9531 12.7656H48.875C48.8646 12.0521 48.6927 11.513 48.3594 11.1484C48.026 10.7786 47.5677 10.5938 46.9844 10.5938ZM57.1484 18.1562C56.0547 18.1562 55.2057 17.763 54.6016 16.9766H54.4922C54.5651 17.7057 54.6016 18.1484 54.6016 18.3047V21.8438H52.7656V9.35938H54.25C54.2917 9.52083 54.3776 9.90625 54.5078 10.5156H54.6016C55.1745 9.64062 56.0339 9.20312 57.1797 9.20312C58.2578 9.20312 59.0964 9.59375 59.6953 10.375C60.2995 11.1562 60.6016 12.2526 60.6016 13.6641C60.6016 15.0755 60.2943 16.1771 59.6797 16.9688C59.0703 17.7604 58.2266 18.1562 57.1484 18.1562ZM56.7031 10.7031C55.974 10.7031 55.4401 10.9167 55.1016 11.3438C54.7682 11.7708 54.6016 12.4531 54.6016 13.3906V13.6641C54.6016 14.7161 54.7682 15.4792 55.1016 15.9531C55.4349 16.4219 55.9792 16.6562 56.7344 16.6562C57.3698 16.6562 57.8594 16.3958 58.2031 15.875C58.5469 15.3542 58.7188 14.612 58.7188 13.6484C58.7188 12.6797 58.5469 11.9479 58.2031 11.4531C57.8646 10.9531 57.3646 10.7031 56.7031 10.7031ZM70.3984 13.6641C70.3984 15.0755 70.0365 16.1771 69.3125 16.9688C68.5885 17.7604 67.5807 18.1562 66.2891 18.1562C65.4818 18.1562 64.7682 17.974 64.1484 17.6094C63.5286 17.2448 63.0521 16.7214 62.7188 16.0391C62.3854 15.3568 62.2188 14.5651 62.2188 13.6641C62.2188 12.263 62.5781 11.1693 63.2969 10.3828C64.0156 9.59635 65.0286 9.20312 66.3359 9.20312C67.5859 9.20312 68.5755 9.60677 69.3047 10.4141C70.0339 11.2161 70.3984 12.2995 70.3984 13.6641ZM64.1094 13.6641C64.1094 15.6589 64.8464 16.6562 66.3203 16.6562C67.7786 16.6562 68.5078 15.6589 68.5078 13.6641C68.5078 11.6901 67.7734 10.7031 66.3047 10.7031C65.5339 10.7031 64.974 10.9583 64.625 11.4688C64.2812 11.9792 64.1094 12.7109 64.1094 13.6641ZM76.8984 9.20312C77.2682 9.20312 77.5729 9.22917 77.8125 9.28125L77.6328 10.9922C77.3724 10.9297 77.1016 10.8984 76.8203 10.8984C76.0859 10.8984 75.4896 11.138 75.0312 11.6172C74.5781 12.0964 74.3516 12.7188 74.3516 13.4844V18H72.5156V9.35938H73.9531L74.1953 10.8828H74.2891C74.5755 10.3672 74.9479 9.95833 75.4062 9.65625C75.8698 9.35417 76.3672 9.20312 76.8984 9.20312ZM82.6406 16.6719C83.0885 16.6719 83.5365 16.6016 83.9844 16.4609V17.8438C83.7812 17.9323 83.5182 18.0052 83.1953 18.0625C82.8776 18.125 82.5469 18.1562 82.2031 18.1562C80.4635 18.1562 79.5938 17.2396 79.5938 15.4062V10.75H78.4141V9.9375L79.6797 9.26562L80.3047 7.4375H81.4375V9.35938H83.8984V10.75H81.4375V15.375C81.4375 15.8177 81.5469 16.1458 81.7656 16.3594C81.9896 16.5677 82.2812 16.6719 82.6406 16.6719ZM96.5312 18H90.0703V6.57812H96.5312V8.15625H91.9375V11.2656H96.2422V12.8281H91.9375V16.4141H96.5312V18ZM106.094 18H104.25V12.6719C104.25 12.0104 104.125 11.5182 103.875 11.1953C103.625 10.8672 103.234 10.7031 102.703 10.7031C101.995 10.7031 101.474 10.9349 101.141 11.3984C100.812 11.8568 100.648 12.6224 100.648 13.6953V18H98.8125V9.35938H100.25L100.508 10.4922H100.602C100.841 10.0807 101.188 9.76302 101.641 9.53906C102.099 9.3151 102.602 9.20312 103.148 9.20312C104.477 9.20312 105.357 9.65625 105.789 10.5625H105.914C106.169 10.1354 106.529 9.80208 106.992 9.5625C107.456 9.32292 107.987 9.20312 108.586 9.20312C109.617 9.20312 110.367 9.46354 110.836 9.98438C111.31 10.5052 111.547 11.2995 111.547 12.3672V18H109.711V12.6719C109.711 12.0104 109.583 11.5182 109.328 11.1953C109.078 10.8672 108.688 10.7031 108.156 10.7031C107.443 10.7031 106.919 10.9271 106.586 11.375C106.258 11.8177 106.094 12.5 106.094 13.4219V18ZM117.883 18.1562C116.539 18.1562 115.487 17.7656 114.727 16.9844C113.971 16.1979 113.594 15.1172 113.594 13.7422C113.594 12.3307 113.945 11.2214 114.648 10.4141C115.352 9.60677 116.318 9.20312 117.547 9.20312C118.688 9.20312 119.589 9.54948 120.25 10.2422C120.911 10.9349 121.242 11.888 121.242 13.1016V14.0938H115.484C115.51 14.9323 115.737 15.5781 116.164 16.0312C116.591 16.4792 117.193 16.7031 117.969 16.7031C118.479 16.7031 118.953 16.6562 119.391 16.5625C119.833 16.4635 120.307 16.3021 120.812 16.0781V17.5703C120.365 17.7839 119.911 17.9349 119.453 18.0234C118.995 18.112 118.471 18.1562 117.883 18.1562ZM117.547 10.5938C116.964 10.5938 116.495 10.7786 116.141 11.1484C115.792 11.5182 115.583 12.0573 115.516 12.7656H119.438C119.427 12.0521 119.255 11.513 118.922 11.1484C118.589 10.7786 118.13 10.5938 117.547 10.5938ZM127.711 9.20312C128.081 9.20312 128.385 9.22917 128.625 9.28125L128.445 10.9922C128.185 10.9297 127.914 10.8984 127.633 10.8984C126.898 10.8984 126.302 11.138 125.844 11.6172C125.391 12.0964 125.164 12.7188 125.164 13.4844V18H123.328V9.35938H124.766L125.008 10.8828H125.102C125.388 10.3672 125.76 9.95833 126.219 9.65625C126.682 9.35417 127.18 9.20312 127.711 9.20312ZM137.531 9.35938V10.3672L136.055 10.6406C136.19 10.8229 136.302 11.0469 136.391 11.3125C136.479 11.5781 136.523 11.8594 136.523 12.1562C136.523 13.0469 136.216 13.7474 135.602 14.2578C134.987 14.7682 134.141 15.0234 133.062 15.0234C132.786 15.0234 132.536 15.0026 132.312 14.9609C131.917 15.2057 131.719 15.4922 131.719 15.8203C131.719 16.0182 131.81 16.1667 131.992 16.2656C132.18 16.3646 132.521 16.4141 133.016 16.4141H134.523C135.477 16.4141 136.201 16.6172 136.695 17.0234C137.19 17.4297 137.438 18.0156 137.438 18.7812C137.438 19.7604 137.034 20.5156 136.227 21.0469C135.419 21.5781 134.253 21.8438 132.727 21.8438C131.549 21.8438 130.651 21.6354 130.031 21.2188C129.411 20.8021 129.102 20.2083 129.102 19.4375C129.102 18.9062 129.268 18.4583 129.602 18.0938C129.94 17.7344 130.411 17.4844 131.016 17.3438C130.771 17.2396 130.568 17.0729 130.406 16.8438C130.25 16.6094 130.172 16.3646 130.172 16.1094C130.172 15.7865 130.263 15.513 130.445 15.2891C130.628 15.0651 130.898 14.8438 131.258 14.625C130.81 14.4323 130.445 14.1198 130.164 13.6875C129.888 13.25 129.75 12.7396 129.75 12.1562C129.75 11.2188 130.044 10.4922 130.633 9.97656C131.227 9.46094 132.07 9.20312 133.164 9.20312C133.409 9.20312 133.664 9.22135 133.93 9.25781C134.201 9.28906 134.404 9.32292 134.539 9.35938H137.531ZM130.742 19.3438C130.742 19.7396 130.919 20.0443 131.273 20.2578C131.633 20.4714 132.135 20.5781 132.781 20.5781C133.781 20.5781 134.526 20.4349 135.016 20.1484C135.505 19.862 135.75 19.4818 135.75 19.0078C135.75 18.6328 135.615 18.3646 135.344 18.2031C135.078 18.0469 134.581 17.9688 133.852 17.9688H132.461C131.935 17.9688 131.516 18.0911 131.203 18.3359C130.896 18.5859 130.742 18.9219 130.742 19.3438ZM131.531 12.1562C131.531 12.6979 131.669 13.1146 131.945 13.4062C132.227 13.6979 132.628 13.8438 133.148 13.8438C134.211 13.8438 134.742 13.276 134.742 12.1406C134.742 11.5781 134.609 11.1458 134.344 10.8438C134.083 10.5365 133.685 10.3828 133.148 10.3828C132.617 10.3828 132.214 10.5339 131.938 10.8359C131.667 11.138 131.531 11.5781 131.531 12.1562ZM142.914 18.1562C141.57 18.1562 140.518 17.7656 139.758 16.9844C139.003 16.1979 138.625 15.1172 138.625 13.7422C138.625 12.3307 138.977 11.2214 139.68 10.4141C140.383 9.60677 141.349 9.20312 142.578 9.20312C143.719 9.20312 144.62 9.54948 145.281 10.2422C145.943 10.9349 146.273 11.888 146.273 13.1016V14.0938H140.516C140.542 14.9323 140.768 15.5781 141.195 16.0312C141.622 16.4792 142.224 16.7031 143 16.7031C143.51 16.7031 143.984 16.6562 144.422 16.5625C144.865 16.4635 145.339 16.3021 145.844 16.0781V17.5703C145.396 17.7839 144.943 17.9349 144.484 18.0234C144.026 18.112 143.503 18.1562 142.914 18.1562ZM142.578 10.5938C141.995 10.5938 141.526 10.7786 141.172 11.1484C140.823 11.5182 140.615 12.0573 140.547 12.7656H144.469C144.458 12.0521 144.286 11.513 143.953 11.1484C143.62 10.7786 143.161 10.5938 142.578 10.5938ZM155.961 18H154.117V12.6875C154.117 12.0208 153.982 11.5234 153.711 11.1953C153.445 10.8672 153.021 10.7031 152.438 10.7031C151.661 10.7031 151.094 10.9323 150.734 11.3906C150.375 11.849 150.195 12.6172 150.195 13.6953V18H148.359V9.35938H149.797L150.055 10.4922H150.148C150.409 10.0807 150.779 9.76302 151.258 9.53906C151.737 9.3151 152.268 9.20312 152.852 9.20312C154.924 9.20312 155.961 10.2578 155.961 12.3672V18ZM162 18.1562C160.693 18.1562 159.698 17.776 159.016 17.0156C158.339 16.25 158 15.1536 158 13.7266C158 12.2734 158.354 11.1562 159.062 10.375C159.776 9.59375 160.805 9.20312 162.148 9.20312C163.06 9.20312 163.88 9.3724 164.609 9.71094L164.055 11.1875C163.279 10.8854 162.638 10.7344 162.133 10.7344C160.638 10.7344 159.891 11.7266 159.891 13.7109C159.891 14.6797 160.076 15.4089 160.445 15.8984C160.82 16.3828 161.367 16.625 162.086 16.625C162.904 16.625 163.677 16.4219 164.406 16.0156V17.6172C164.078 17.8099 163.727 17.9479 163.352 18.0312C162.982 18.1146 162.531 18.1562 162 18.1562ZM165.125 9.35938H167.125L168.883 14.2578C169.148 14.9557 169.326 15.612 169.414 16.2266H169.477C169.523 15.9401 169.609 15.5938 169.734 15.1875C169.859 14.776 170.521 12.8333 171.719 9.35938H173.703L170.008 19.1484C169.336 20.9453 168.216 21.8438 166.648 21.8438C166.242 21.8438 165.846 21.7995 165.461 21.7109V20.2578C165.737 20.3203 166.052 20.3516 166.406 20.3516C167.292 20.3516 167.914 19.8385 168.273 18.8125L168.594 18L165.125 9.35938Z" fill="#F84647"/>
<path fill-rule="evenodd" clip-rule="evenodd" d="M16 0H8V7.88814H0V15.7763H8V23.6644H16V15.7763H24V7.88814H16V0Z" fill="#F84647"/>
</svg>
