<svg width="162" height="144" viewBox="0 0 162 144" fill="none" xmlns="http://www.w3.org/2000/svg">
<rect x="0.5" y="0.5" width="161" height="143" rx="7.5" stroke="#9C9C9C"/>
<path d="M81.0001 71.9999C85.6025 71.9999 89.3334 68.269 89.3334 63.6666C89.3334 59.0642 85.6025 55.3333 81.0001 55.3333C76.3977 55.3333 72.6667 59.0642 72.6667 63.6666C72.6667 68.269 76.3977 71.9999 81.0001 71.9999Z" stroke="#9C9C9C" stroke-width="2"/>
<path d="M89.3334 75.3333H89.92C91.1385 75.3336 92.3149 75.7789 93.2282 76.5854C94.1415 77.3919 94.7289 78.5042 94.88 79.7133L95.5317 84.9199C95.5903 85.389 95.5485 85.8651 95.409 86.3168C95.2695 86.7684 95.0356 87.1852 94.7227 87.5396C94.4099 87.8939 94.0252 88.1776 93.5943 88.372C93.1634 88.5663 92.6961 88.6667 92.2234 88.6666H69.7767C69.304 88.6667 68.8367 88.5663 68.4058 88.372C67.9748 88.1776 67.5902 87.8939 67.2773 87.5396C66.9644 87.1852 66.7305 86.7684 66.591 86.3168C66.4516 85.8651 66.4097 85.389 66.4684 84.9199L67.1184 79.7133C67.2695 78.5036 67.8574 77.3909 68.7714 76.5843C69.6854 75.7777 70.8626 75.3328 72.0817 75.3333H72.6667" stroke="#9C9C9C" stroke-width="2" stroke-linecap="round" stroke-linejoin="round"/>
</svg>
