<svg width="32" height="32" viewBox="0 0 32 32" fill="none" xmlns="http://www.w3.org/2000/svg">
<path d="M30.6666 4.00004C29.3898 4.90068 27.9761 5.58952 26.4799 6.04004C25.6769 5.11672 24.6097 4.4623 23.4226 4.16528C22.2356 3.86825 20.9859 3.94297 19.8427 4.37931C18.6995 4.81566 17.7178 5.59258 17.0306 6.605C16.3433 7.61742 15.9835 8.81649 15.9999 10.04V11.3734C13.6568 11.4341 11.335 10.9145 9.24126 9.86064C7.14758 8.80681 5.34701 7.25155 3.99992 5.33337C3.99992 5.33337 -1.33341 17.3334 10.6666 22.6667C7.92062 24.5307 4.64946 25.4653 1.33325 25.3334C13.3333 32 27.9999 25.3334 27.9999 10C27.9987 9.62865 27.963 9.25817 27.8933 8.89337C29.2541 7.55137 30.2144 5.85699 30.6666 4.00004V4.00004Z" stroke="white" stroke-width="2" stroke-linecap="round" stroke-linejoin="round"/>
</svg>
