<svg width="276" height="33" viewBox="0 0 276 33" fill="none" xmlns="http://www.w3.org/2000/svg">
<path d="M53.0625 17.8359H55.0078C56.3125 17.8359 57.2578 17.5938 57.8438 17.1094C58.4297 16.625 58.7227 15.9062 58.7227 14.9531C58.7227 13.9844 58.4062 13.2891 57.7734 12.8672C57.1406 12.4453 56.1875 12.2344 54.9141 12.2344H53.0625V17.8359ZM53.0625 20.1562V27H50.2617V9.86719H55.1016C57.3125 9.86719 58.9492 10.2812 60.0117 11.1094C61.0742 11.9375 61.6055 13.1875 61.6055 14.8594C61.6055 16.9922 60.4961 18.5117 58.2773 19.418L63.1172 27H59.9297L55.8281 20.1562H53.0625ZM70.9805 27.2344C68.9648 27.2344 67.3867 26.6484 66.2461 25.4766C65.1133 24.2969 64.5469 22.6758 64.5469 20.6133C64.5469 18.4961 65.0742 16.832 66.1289 15.6211C67.1836 14.4102 68.6328 13.8047 70.4766 13.8047C72.1875 13.8047 73.5391 14.3242 74.5312 15.3633C75.5234 16.4023 76.0195 17.832 76.0195 19.6523V21.1406H67.3828C67.4219 22.3984 67.7617 23.3672 68.4023 24.0469C69.043 24.7188 69.9453 25.0547 71.1094 25.0547C71.875 25.0547 72.5859 24.9844 73.2422 24.8438C73.9062 24.6953 74.6172 24.4531 75.375 24.1172V26.3555C74.7031 26.6758 74.0234 26.9023 73.3359 27.0352C72.6484 27.168 71.8633 27.2344 70.9805 27.2344ZM70.4766 15.8906C69.6016 15.8906 68.8984 16.168 68.3672 16.7227C67.8438 17.2773 67.5312 18.0859 67.4297 19.1484H73.3125C73.2969 18.0781 73.0391 17.2695 72.5391 16.7227C72.0391 16.168 71.3516 15.8906 70.4766 15.8906ZM85.7227 27.2344C84.082 27.2344 82.8086 26.6445 81.9023 25.4648H81.7383C81.8477 26.5586 81.9023 27.2227 81.9023 27.457V32.7656H79.1484V14.0391H81.375C81.4375 14.2812 81.5664 14.8594 81.7617 15.7734H81.9023C82.7617 14.4609 84.0508 13.8047 85.7695 13.8047C87.3867 13.8047 88.6445 14.3906 89.543 15.5625C90.4492 16.7344 90.9023 18.3789 90.9023 20.4961C90.9023 22.6133 90.4414 24.2656 89.5195 25.4531C88.6055 26.6406 87.3398 27.2344 85.7227 27.2344ZM85.0547 16.0547C83.9609 16.0547 83.1602 16.375 82.6523 17.0156C82.1523 17.6562 81.9023 18.6797 81.9023 20.0859V20.4961C81.9023 22.0742 82.1523 23.2188 82.6523 23.9297C83.1523 24.6328 83.9688 24.9844 85.1016 24.9844C86.0547 24.9844 86.7891 24.5938 87.3047 23.8125C87.8203 23.0312 88.0781 21.918 88.0781 20.4727C88.0781 19.0195 87.8203 17.9219 87.3047 17.1797C86.7969 16.4297 86.0469 16.0547 85.0547 16.0547ZM105.598 20.4961C105.598 22.6133 105.055 24.2656 103.969 25.4531C102.883 26.6406 101.371 27.2344 99.4336 27.2344C98.2227 27.2344 97.1523 26.9609 96.2227 26.4141C95.293 25.8672 94.5781 25.082 94.0781 24.0586C93.5781 23.0352 93.3281 21.8477 93.3281 20.4961C93.3281 18.3945 93.8672 16.7539 94.9453 15.5742C96.0234 14.3945 97.543 13.8047 99.5039 13.8047C101.379 13.8047 102.863 14.4102 103.957 15.6211C105.051 16.8242 105.598 18.4492 105.598 20.4961ZM96.1641 20.4961C96.1641 23.4883 97.2695 24.9844 99.4805 24.9844C101.668 24.9844 102.762 23.4883 102.762 20.4961C102.762 17.5352 101.66 16.0547 99.457 16.0547C98.3008 16.0547 97.4609 16.4375 96.9375 17.2031C96.4219 17.9688 96.1641 19.0664 96.1641 20.4961ZM115.348 13.8047C115.902 13.8047 116.359 13.8438 116.719 13.9219L116.449 16.4883C116.059 16.3945 115.652 16.3477 115.23 16.3477C114.129 16.3477 113.234 16.707 112.547 17.4258C111.867 18.1445 111.527 19.0781 111.527 20.2266V27H108.773V14.0391H110.93L111.293 16.3242H111.434C111.863 15.5508 112.422 14.9375 113.109 14.4844C113.805 14.0312 114.551 13.8047 115.348 13.8047ZM123.961 25.0078C124.633 25.0078 125.305 24.9023 125.977 24.6914V26.7656C125.672 26.8984 125.277 27.0078 124.793 27.0938C124.316 27.1875 123.82 27.2344 123.305 27.2344C120.695 27.2344 119.391 25.8594 119.391 23.1094V16.125H117.621V14.9062L119.52 13.8984L120.457 11.1562H122.156V14.0391H125.848V16.125H122.156V23.0625C122.156 23.7266 122.32 24.2188 122.648 24.5391C122.984 24.8516 123.422 25.0078 123.961 25.0078ZM144.797 27H135.105V9.86719H144.797V12.2344H137.906V16.8984H144.363V19.2422H137.906V24.6211H144.797V27ZM159.141 27H156.375V19.0078C156.375 18.0156 156.188 17.2773 155.812 16.793C155.438 16.3008 154.852 16.0547 154.055 16.0547C152.992 16.0547 152.211 16.4023 151.711 17.0977C151.219 17.7852 150.973 18.9336 150.973 20.543V27H148.219V14.0391H150.375L150.762 15.7383H150.902C151.262 15.1211 151.781 14.6445 152.461 14.3086C153.148 13.9727 153.902 13.8047 154.723 13.8047C156.715 13.8047 158.035 14.4844 158.684 15.8438H158.871C159.254 15.2031 159.793 14.7031 160.488 14.3438C161.184 13.9844 161.98 13.8047 162.879 13.8047C164.426 13.8047 165.551 14.1953 166.254 14.9766C166.965 15.7578 167.32 16.9492 167.32 18.5508V27H164.566V19.0078C164.566 18.0156 164.375 17.2773 163.992 16.793C163.617 16.3008 163.031 16.0547 162.234 16.0547C161.164 16.0547 160.379 16.3906 159.879 17.0625C159.387 17.7266 159.141 18.75 159.141 20.1328V27ZM176.824 27.2344C174.809 27.2344 173.23 26.6484 172.09 25.4766C170.957 24.2969 170.391 22.6758 170.391 20.6133C170.391 18.4961 170.918 16.832 171.973 15.6211C173.027 14.4102 174.477 13.8047 176.32 13.8047C178.031 13.8047 179.383 14.3242 180.375 15.3633C181.367 16.4023 181.863 17.832 181.863 19.6523V21.1406H173.227C173.266 22.3984 173.605 23.3672 174.246 24.0469C174.887 24.7188 175.789 25.0547 176.953 25.0547C177.719 25.0547 178.43 24.9844 179.086 24.8438C179.75 24.6953 180.461 24.4531 181.219 24.1172V26.3555C180.547 26.6758 179.867 26.9023 179.18 27.0352C178.492 27.168 177.707 27.2344 176.824 27.2344ZM176.32 15.8906C175.445 15.8906 174.742 16.168 174.211 16.7227C173.688 17.2773 173.375 18.0859 173.273 19.1484H179.156C179.141 18.0781 178.883 17.2695 178.383 16.7227C177.883 16.168 177.195 15.8906 176.32 15.8906ZM191.566 13.8047C192.121 13.8047 192.578 13.8438 192.938 13.9219L192.668 16.4883C192.277 16.3945 191.871 16.3477 191.449 16.3477C190.348 16.3477 189.453 16.707 188.766 17.4258C188.086 18.1445 187.746 19.0781 187.746 20.2266V27H184.992V14.0391H187.148L187.512 16.3242H187.652C188.082 15.5508 188.641 14.9375 189.328 14.4844C190.023 14.0312 190.77 13.8047 191.566 13.8047ZM206.297 14.0391V15.5508L204.082 15.9609C204.285 16.2344 204.453 16.5703 204.586 16.9688C204.719 17.3672 204.785 17.7891 204.785 18.2344C204.785 19.5703 204.324 20.6211 203.402 21.3867C202.48 22.1523 201.211 22.5352 199.594 22.5352C199.18 22.5352 198.805 22.5039 198.469 22.4414C197.875 22.8086 197.578 23.2383 197.578 23.7305C197.578 24.0273 197.715 24.25 197.988 24.3984C198.27 24.5469 198.781 24.6211 199.523 24.6211H201.785C203.215 24.6211 204.301 24.9258 205.043 25.5352C205.785 26.1445 206.156 27.0234 206.156 28.1719C206.156 29.6406 205.551 30.7734 204.34 31.5703C203.129 32.3672 201.379 32.7656 199.09 32.7656C197.324 32.7656 195.977 32.4531 195.047 31.8281C194.117 31.2031 193.652 30.3125 193.652 29.1562C193.652 28.3594 193.902 27.6875 194.402 27.1406C194.91 26.6016 195.617 26.2266 196.523 26.0156C196.156 25.8594 195.852 25.6094 195.609 25.2656C195.375 24.9141 195.258 24.5469 195.258 24.1641C195.258 23.6797 195.395 23.2695 195.668 22.9336C195.941 22.5977 196.348 22.2656 196.887 21.9375C196.215 21.6484 195.668 21.1797 195.246 20.5312C194.832 19.875 194.625 19.1094 194.625 18.2344C194.625 16.8281 195.066 15.7383 195.949 14.9648C196.84 14.1914 198.105 13.8047 199.746 13.8047C200.113 13.8047 200.496 13.832 200.895 13.8867C201.301 13.9336 201.605 13.9844 201.809 14.0391H206.297ZM196.113 29.0156C196.113 29.6094 196.379 30.0664 196.91 30.3867C197.449 30.707 198.203 30.8672 199.172 30.8672C200.672 30.8672 201.789 30.6523 202.523 30.2227C203.258 29.793 203.625 29.2227 203.625 28.5117C203.625 27.9492 203.422 27.5469 203.016 27.3047C202.617 27.0703 201.871 26.9531 200.777 26.9531H198.691C197.902 26.9531 197.273 27.1367 196.805 27.5039C196.344 27.8789 196.113 28.3828 196.113 29.0156ZM197.297 18.2344C197.297 19.0469 197.504 19.6719 197.918 20.1094C198.34 20.5469 198.941 20.7656 199.723 20.7656C201.316 20.7656 202.113 19.9141 202.113 18.2109C202.113 17.3672 201.914 16.7188 201.516 16.2656C201.125 15.8047 200.527 15.5742 199.723 15.5742C198.926 15.5742 198.32 15.8008 197.906 16.2539C197.5 16.707 197.297 17.3672 197.297 18.2344ZM214.371 27.2344C212.355 27.2344 210.777 26.6484 209.637 25.4766C208.504 24.2969 207.938 22.6758 207.938 20.6133C207.938 18.4961 208.465 16.832 209.52 15.6211C210.574 14.4102 212.023 13.8047 213.867 13.8047C215.578 13.8047 216.93 14.3242 217.922 15.3633C218.914 16.4023 219.41 17.832 219.41 19.6523V21.1406H210.773C210.812 22.3984 211.152 23.3672 211.793 24.0469C212.434 24.7188 213.336 25.0547 214.5 25.0547C215.266 25.0547 215.977 24.9844 216.633 24.8438C217.297 24.6953 218.008 24.4531 218.766 24.1172V26.3555C218.094 26.6758 217.414 26.9023 216.727 27.0352C216.039 27.168 215.254 27.2344 214.371 27.2344ZM213.867 15.8906C212.992 15.8906 212.289 16.168 211.758 16.7227C211.234 17.2773 210.922 18.0859 210.82 19.1484H216.703C216.688 18.0781 216.43 17.2695 215.93 16.7227C215.43 16.168 214.742 15.8906 213.867 15.8906ZM233.941 27H231.176V19.0312C231.176 18.0312 230.973 17.2852 230.566 16.793C230.168 16.3008 229.531 16.0547 228.656 16.0547C227.492 16.0547 226.641 16.3984 226.102 17.0859C225.562 17.7734 225.293 18.9258 225.293 20.543V27H222.539V14.0391H224.695L225.082 15.7383H225.223C225.613 15.1211 226.168 14.6445 226.887 14.3086C227.605 13.9727 228.402 13.8047 229.277 13.8047C232.387 13.8047 233.941 15.3867 233.941 18.5508V27ZM243 27.2344C241.039 27.2344 239.547 26.6641 238.523 25.5234C237.508 24.375 237 22.7305 237 20.5898C237 18.4102 237.531 16.7344 238.594 15.5625C239.664 14.3906 241.207 13.8047 243.223 13.8047C244.59 13.8047 245.82 14.0586 246.914 14.5664L246.082 16.7812C244.918 16.3281 243.957 16.1016 243.199 16.1016C240.957 16.1016 239.836 17.5898 239.836 20.5664C239.836 22.0195 240.113 23.1133 240.668 23.8477C241.23 24.5742 242.051 24.9375 243.129 24.9375C244.355 24.9375 245.516 24.6328 246.609 24.0234V26.4258C246.117 26.7148 245.59 26.9219 245.027 27.0469C244.473 27.1719 243.797 27.2344 243 27.2344ZM247.688 14.0391H250.688L253.324 21.3867C253.723 22.4336 253.988 23.418 254.121 24.3398H254.215C254.285 23.9102 254.414 23.3906 254.602 22.7812C254.789 22.1641 255.781 19.25 257.578 14.0391H260.555L255.012 28.7227C254.004 31.418 252.324 32.7656 249.973 32.7656C249.363 32.7656 248.77 32.6992 248.191 32.5664V30.3867C248.605 30.4805 249.078 30.5273 249.609 30.5273C250.938 30.5273 251.871 29.7578 252.41 28.2188L252.891 27L247.688 14.0391Z" fill="white"/>
<path fill-rule="evenodd" clip-rule="evenodd" d="M21.3333 1.83331H10.6667V11.6112H0V21.389H10.6667V31.1667H21.3333V21.389H32V11.6112H21.3333V1.83331Z" fill="white"/>
</svg>
